<?xml version="1.0" standalone="no"?>
<!DOCTYPE svg PUBLIC "-//W3C//DTD SVG 20010904//EN"
 "http://www.w3.org/TR/2001/REC-SVG-20010904/DTD/svg10.dtd">
<svg version="1.0" xmlns="http://www.w3.org/2000/svg"
 width="1000.000000pt" height="1000.000000pt" viewBox="0 0 1000.000000 1000.000000"
 preserveAspectRatio="xMidYMid meet">
<metadata>
Created by potrace 1.14, written by Peter Selinger 2001-2017
</metadata>
<g transform="translate(0.000000,1000.000000) scale(0.100000,-0.100000)"
fill="#000000" stroke="none">
<path d="M4655 9834 c-374 -37 -543 -63 -810 -129 -1189 -290 -2223 -1022
-2898 -2051 -420 -640 -670 -1335 -764 -2119 -26 -216 -26 -854 0 -1070 134
-1122 609 -2107 1392 -2890 783 -783 1768 -1258 2890 -1392 216 -26 854 -26
1070 0 1122 134 2108 609 2890 1392 783 782 1258 1768 1392 2890 26 216 26
854 0 1070 -134 1122 -609 2108 -1392 2890 -780 780 -1769 1258 -2880 1391
-100 12 -241 17 -495 19 -195 1 -373 1 -395 -1z"/>
</g>
</svg>
